<?xml version="1.0" encoding="UTF-8" standalone="no"?>
<!DOCTYPE svg PUBLIC "-//W3C//DTD SVG 1.1//EN" "http://www.w3.org/Graphics/SVG/1.1/DTD/svg11.dtd">
<svg width="100%" height="100%" viewBox="0 0 5000 5000" version="1.1" xmlns="http://www.w3.org/2000/svg" xmlns:xlink="http://www.w3.org/1999/xlink" xml:space="preserve" xmlns:serif="http://www.serif.com/" style="fill-rule:evenodd;clip-rule:evenodd;stroke-linejoin:round;stroke-miterlimit:2;">
    <rect id="Artboard3" x="0" y="0" width="5000" height="5000" style="fill:none;"/>
    <g>
        <clipPath id="_clip1">
            <rect x="500" y="500" width="4000" height="4000"/>
        </clipPath>
        <g clip-path="url(#_clip1)">
            <rect x="500" y="4295.833" width="4000" height="208.333"/>
            <path d="M360.507,3746.39L439.493,3553.61C439.493,3553.61 1277.789,3895.833 2500,3895.833C3722.211,3895.833 4560.507,3553.61 4560.507,3553.61L4639.493,3746.39C4639.493,3746.39 3769.296,4104.167 2500,4104.167C1230.704,4104.167 360.507,3746.39 360.507,3746.39Z"/>
            <path d="M326.665,2973.977L473.335,2826.023C473.335,2826.023 1059.171,3395.833 2500,3395.833C3940.829,3395.833 4526.665,2826.023 4526.665,2826.023L4673.335,2973.977C4673.335,2973.977 4048.7,3604.167 2500,3604.167C951.3,3604.167 326.665,2973.977 326.665,2973.977Z"/>
            <path d="M314.349,2209.284L485.651,2090.716C485.651,2090.716 1052.537,2895.833 2500,2895.833C3947.463,2895.833 4514.349,2090.716 4514.349,2090.716L4685.651,2209.284C4685.651,2209.284 4075.885,3104.167 2500,3104.167C924.115,3104.167 314.349,2209.284 314.349,2209.284Z"/>
            <path d="M317.59,1463.712L482.41,1336.288C482.41,1336.288 1298.798,2395.833 2500,2395.833C3701.202,2395.833 4517.59,1336.288 4517.59,1336.288L4682.41,1463.712C4682.41,1463.712 3797.949,2604.167 2500,2604.167C1202.051,2604.167 317.59,1463.712 317.59,1463.712Z"/>
            <path d="M263.838,658.538L436.162,541.462C436.162,541.462 769.571,1031.755 1288.15,1424.132C1626.189,1679.906 2043.699,1895.833 2500,1895.833C2956.301,1895.833 3373.811,1679.906 3711.85,1424.132C4230.429,1031.755 4563.838,541.462 4563.838,541.462L4736.162,658.538C4736.162,658.538 4384.742,1176.245 3837.555,1590.268C3465.082,1872.095 3002.781,2104.167 2500,2104.167C1997.219,2104.167 1534.918,1872.095 1162.445,1590.268C615.258,1176.245 263.838,658.538 263.838,658.538Z"/>
            <path d="M710.432,353.182L889.568,246.818C889.568,246.818 1137.353,663.672 1541.333,997.28C1802.615,1213.048 2130.09,1395.833 2500,1395.833C2869.91,1395.833 3197.385,1213.048 3458.667,997.28C3862.647,663.672 4110.432,246.818 4110.432,246.818L4289.568,353.182C4289.568,353.182 4024.345,800.328 3591.324,1157.92C3294.602,1402.954 2920.084,1604.167 2500,1604.167C2079.916,1604.167 1705.398,1402.954 1408.676,1157.92C975.655,800.328 710.432,353.182 710.432,353.182Z"/>
            <path d="M1552.98,437.919L1747.02,362.081C1747.02,362.081 1953.992,895.833 2500,895.833C3046.008,895.833 3252.98,362.081 3252.98,362.081L3447.02,437.919C3447.02,437.919 3184.988,1104.167 2500,1104.167C1815.012,1104.167 1552.98,437.919 1552.98,437.919Z"/>
            <circle cx="2500" cy="500" r="200"/>
            <path d="M2500,299.375C2610.728,299.375 2700.625,389.272 2700.625,500C2700.625,610.728 2610.728,700.625 2500,700.625C2389.272,700.625 2299.375,610.728 2299.375,500C2299.375,389.272 2389.272,299.375 2500,299.375ZM2500,300.625C2389.962,300.625 2300.625,389.962 2300.625,500C2300.625,610.038 2389.962,699.375 2500,699.375C2610.038,699.375 2699.375,610.038 2699.375,500C2699.375,389.962 2610.038,300.625 2500,300.625Z" style="fill:none;"/>
        </g>
    </g>
</svg>
