<svg width="24" height="24" viewBox="0 0 24 24" version="1.1" xmlns="http://www.w3.org/2000/svg"
     xml:space="preserve"
     style="fill-rule:evenodd;clip-rule:evenodd;stroke-linejoin:round;stroke-miterlimit:2;">
    <rect id="Artboard3" x="0" y="0" width="24" height="24" style="fill:none;"/>
    <g>
        <clipPath id="_clip1">
            <rect x="2.4" y="2.4" width="19.2" height="19.2"/>
        </clipPath>
        <g clip-path="url(#_clip1)" style="fill:white;">
            <rect x="2.4" y="20.62" width="19.2" height="1"/>
            <path d="M1.73,17.98L2.11,17.06C2.11,17.06 6.13,18.7 12,18.7C17.87,18.7 21.89,17.06 21.89,17.06L22.27,17.98C22.27,17.98 18.09,19.7 12,19.7C5.91,19.7 1.73,17.98 1.73,17.98Z"/>
            <path d="M1.57,14.28L2.27,13.56C2.27,13.56 5.08,16.3 12,16.3C18.92,16.3 21.73,13.56 21.73,13.56L22.43,14.28C22.43,14.28 19.43,17.3 12,17.3C4.57,17.3 1.57,14.28 1.57,14.28Z"/>
            <path d="M1.51,10.6L2.33,10.04C2.33,10.04 5.05,13.9 12,13.9C18.95,13.9 21.67,10.04 21.67,10.04L22.49,10.6C22.49,10.6 19.56,14.9 12,14.9C4.44,14.9 1.51,10.6 1.51,10.6Z"/>
            <path d="M1.52,7.03L2.32,6.41C2.32,6.41 6.23,11.5 12,11.5C17.77,11.5 21.68,6.41 21.68,6.41L22.48,7.03C22.48,7.03 18.23,12.5 12,12.5C5.77,12.5 1.52,7.03 1.52,7.03Z"/>
            <path d="M1.27,3.16L2.09,2.6C2.09,2.6 3.69,4.95 6.18,6.84C7.81,8.06 9.81,9.1 12,9.1C14.19,9.1 16.19,8.06 17.82,6.84C20.31,4.95 21.91,2.6 21.91,2.6L22.73,3.16C22.73,3.16 21.05,5.65 18.42,7.63C16.63,8.99 14.41,10.1 12,10.1C9.59,10.1 7.37,8.99 5.58,7.63C2.95,5.65 1.27,3.16 1.27,3.16Z"/>
            <path d="M3.41,1.7L4.27,1.18C4.27,1.18 5.46,3.19 7.4,4.79C8.65,5.82 10.22,6.7 12,6.7C13.78,6.7 15.35,5.82 16.6,4.79C18.54,3.19 19.73,1.18 19.73,1.18L20.59,1.7C20.59,1.7 19.32,3.84 17.24,5.56C15.81,6.73 14.02,7.7 12,7.7C9.98,7.7 8.19,6.73 6.76,5.56C4.68,3.84 3.41,1.7 3.41,1.7Z"/>
            <path d="M7.45,2.1L8.39,1.74C8.39,1.74 9.38,4.3 12,4.3C14.62,4.3 15.61,1.74 15.61,1.74L16.55,2.1C16.55,2.1 15.29,5.3 12,5.3C8.71,5.3 7.45,2.1 7.45,2.1Z"/>
            <circle cx="12" cy="2.4" r="0.96"/>
            <path d="M12,1.44C12.53,1.44 12.96,1.87 12.96,2.4C12.96,2.93 12.53,3.36 12,3.36C11.47,3.36 11.04,2.93 11.04,2.4C11.04,1.87 11.47,1.44 12,1.44ZM12,1.44C11.47,1.44 11.04,1.87 11.04,2.4C11.04,2.93 11.47,3.36 12,3.36C12.53,3.36 12.96,2.93 12.96,2.4C12.96,1.87 12.53,1.44 12,1.44Z"
                  style="fill:none;"/>
        </g>
    </g>
</svg>